<?xml version="1.0" encoding="UTF-8" standalone="no"?><svg xmlns="http://www.w3.org/2000/svg" xmlns:xlink="http://www.w3.org/1999/xlink" fill="#ffffff" height="400" preserveAspectRatio="xMidYMid meet" version="1" viewBox="0.0 0.0 385.6 400.0" width="385.6" zoomAndPan="magnify"><g id="change1_1"><path d="M9.25,107.72c-0.98-1-1.86-2.04-2.69-3.14c-0.88-1.18-1.66-2.36-2.41-3.62l-0.12-0.22c-1.29-2.33-2.31-4.84-2.99-7.47 C0.36,90.64,0,87.94,0,85.23c0-2.71,0.37-5.42,1.04-8.05c0.69-2.66,1.71-5.18,3.01-7.52l0.11-0.2c0.69-1.18,1.45-2.34,2.4-3.6 c0.91-1.22,1.89-2.36,3.01-3.46l53-53.02l0.4-0.37C69.19,3.01,77.22,0,85.23,0c8.18,0,16.37,3.13,22.62,9.38l0.4,0.41 c6.01,6.2,9.01,14.23,9.01,22.25c0,7.54-2.66,15.1-7.99,21.14h194.39c10.54,0,20.71,1.89,30.07,5.32 c9.74,3.56,18.59,8.78,26.07,15.26c8.08,7,14.61,15.44,19.07,24.87c4.33,9.15,6.72,19.22,6.72,29.79v47.99 c0,8.85-3.59,16.86-9.39,22.66s-13.81,9.39-22.66,9.39c-8.85,0-16.86-3.59-22.66-9.39c-5.8-5.8-9.39-13.81-9.39-22.66v-47.99 c0-1.01-0.27-2.01-0.75-2.95c-0.63-1.21-1.58-2.37-2.76-3.39c-1.68-1.46-3.81-2.66-6.26-3.5c-2.43-0.83-5.16-1.3-8.08-1.3H109.29 c5.32,6.05,7.99,13.6,7.99,21.14c0,8.2-3.13,16.4-9.39,22.66c-6.26,6.26-14.46,9.38-22.65,9.38c-8.2,0-16.4-3.13-22.66-9.38 L9.25,107.72L9.25,107.72z M16.84,96.88c0.44,0.58,0.93,1.16,1.51,1.76l53.34,53.31c3.73,3.73,8.64,5.6,13.54,5.6 c4.9,0,9.8-1.87,13.54-5.6c3.74-3.74,5.6-8.64,5.6-13.54c0-4.92-1.86-9.82-5.58-13.54l-9.15-9.15c-1.38-1.18-2.26-2.94-2.26-4.9 c0-3.56,2.89-6.45,6.45-6.45h209.84c4.37,0,8.52,0.72,12.26,2c3.97,1.37,7.54,3.42,10.49,5.97c2.43,2.11,4.41,4.56,5.78,7.23v0.02 c1.43,2.79,2.22,5.77,2.22,8.82v47.99c0,5.29,2.14,10.08,5.61,13.54c3.46,3.46,8.25,5.61,13.54,5.61c5.29,0,10.08-2.14,13.54-5.61 c3.46-3.46,5.61-8.25,5.61-13.54v-47.99c0-8.65-1.95-16.86-5.46-24.3c-3.69-7.81-9.12-14.82-15.85-20.64 c-6.32-5.46-13.8-9.88-22.04-12.89c-7.94-2.9-16.62-4.51-25.69-4.51H93.83c-1.65,0-3.3-0.63-4.56-1.89c-2.52-2.52-2.52-6.6,0-9.12 l9.49-9.49c3.74-3.72,5.6-8.63,5.6-13.54c0-4.78-1.77-9.56-5.3-13.26l-0.29-0.3c-3.73-3.72-8.64-5.59-13.54-5.59 c-4.78,0-9.56,1.77-13.26,5.3c-4.86,5.2-51.63,52.45-53.34,53.34c-0.71,0.7-1.29,1.37-1.79,2.04c-0.48,0.65-1.04,1.51-1.65,2.54 c-0.74,1.34-1.31,2.79-1.7,4.3c-0.38,1.48-0.59,3.09-0.59,4.82c0,1.72,0.21,3.34,0.59,4.82c0.4,1.54,0.99,3.02,1.75,4.39 C15.79,95.36,16.31,96.17,16.84,96.88L16.84,96.88z M376.34,292.25l1.17,1.24c0.47,0.57,0.97,1.15,1.42,1.74 c0.42,0.54,0.87,1.16,1.36,1.89c0.54,0.8,1.01,1.56,1.35,2.2l0.18,0.37c1.18,2.2,2.11,4.57,2.75,7.05c0.68,2.63,1.05,5.33,1.05,8.05 c0,2.72-0.36,5.42-1.05,8.05c-0.68,2.61-1.68,5.1-2.95,7.41c-0.32,0.65-0.8,1.41-1.33,2.21c-0.51,0.77-0.95,1.37-1.32,1.87 l-0.06,0.07c-0.84,1.1-1.8,2.17-2.87,3.23l-53,53.02l-0.4,0.37c-6.2,6.01-14.23,9.01-22.25,9.01c-8.18,0-16.37-3.13-22.62-9.38 l-0.4-0.41c-6.01-6.2-9.01-14.23-9.01-22.25c0-7.54,2.66-15.1,7.99-21.14H81.94c-10.54,0-20.71-1.89-30.07-5.32 c-9.74-3.56-18.59-8.78-26.07-15.26c-8.08-7-14.61-15.44-19.07-24.87C2.4,292.22,0,282.15,0,271.58V223.6 c0-8.85,3.59-16.86,9.39-22.66s13.81-9.39,22.66-9.39c8.85,0,16.86,3.59,22.66,9.39c5.8,5.8,9.39,13.81,9.39,22.66v47.99 c0,1.01,0.27,2.01,0.75,2.95c0.63,1.21,1.58,2.37,2.76,3.39c1.68,1.46,3.81,2.66,6.26,3.5c2.43,0.83,5.16,1.3,8.08,1.3h194.39 c-5.32-6.04-7.98-13.59-7.98-21.14c0-8.2,3.13-16.4,9.39-22.66c6.25-6.25,14.46-9.38,22.66-9.38c8.2,0,16.4,3.13,22.65,9.38 L376.34,292.25L376.34,292.25z M367.89,302.05c-16.71-18.14-36.37-36.4-53.97-54c-3.73-3.73-8.64-5.6-13.54-5.6 c-4.9,0-9.8,1.87-13.54,5.6c-3.73,3.73-5.6,8.64-5.6,13.54c0,4.92,1.87,9.83,5.6,13.56l9.12,9.12c1.38,1.18,2.26,2.94,2.26,4.9 c0,3.56-2.89,6.45-6.45,6.45H81.94c-4.37,0-8.51-0.72-12.26-2c-3.98-1.37-7.54-3.42-10.49-5.97c-2.43-2.11-4.41-4.56-5.78-7.23 v-0.02c-1.43-2.78-2.22-5.77-2.22-8.82V223.6c0-5.29-2.14-10.08-5.61-13.54c-3.46-3.46-8.25-5.61-13.54-5.61 c-5.29,0-10.08,2.14-13.54,5.61c-3.46,3.46-5.61,8.25-5.61,13.54v47.99c0,8.65,1.95,16.86,5.46,24.3 c3.69,7.81,9.12,14.82,15.85,20.64c6.31,5.47,13.8,9.88,22.04,12.89c7.94,2.9,16.62,4.51,25.69,4.51h209.85 c1.65,0,3.3,0.63,4.56,1.89c2.52,2.52,2.52,6.6,0,9.12l-9.49,9.49c-3.74,3.72-5.6,8.63-5.6,13.54c0,4.78,1.77,9.56,5.3,13.26 l0.29,0.3c3.73,3.72,8.64,5.59,13.54,5.59c4.78,0,9.56-1.77,13.26-5.3c4.86-5.2,51.63-52.45,53.34-53.34c0.59-0.57,1.17-1.24,1.76-2 l0.87-1.18c0.18-0.28,0.4-0.63,0.64-1.09l0.08-0.1c0.78-1.4,1.39-2.91,1.8-4.49c0.38-1.48,0.59-3.1,0.59-4.82s-0.21-3.34-0.59-4.82 c-0.37-1.44-0.91-2.82-1.6-4.12l-0.28-0.48c-0.25-0.46-0.46-0.82-0.64-1.09l-0.9-1.23l-0.56-0.7L367.89,302.05L367.89,302.05z"/></g></svg>